# xmcd
#
# Track frame offsets: 
#        150
#        15926
#        37662
#        56910
#        78463
#        97819
#        117714
#        140329
#        161516
#        178192
#        197132
#        216142
#        235587
#        250536
#        266145
#        274865
#
# Disc length: 4055 seconds
#
# Revision: 0
# Processed by: cddbd v1.5.2PL0 Copyright (c) Steve Scherf et al.
# Submitted via: ExactAudioCopyFreeDBPlugin 1.0
#
DISCID=d60fd510
DTITLE=Katie Webster - I'm Bad (The Swamp Boogie Queen)
DYEAR=2015
DGENRE=Blues
TTITLE0=Got my mojo workin'
TTITLE1=I want you to love me
TTITLE2=Katie's boogie
TTITLE3=I'm bad
TTITLE4=Basin Street blues
TTITLE5=Two fisted mama
TTITLE6=So far away
TTITLE7=Hobo blues - Boogie chillen' (Medley)
TTITLE8=Sea of love
TTITLE9=Honest I do
TTITLE10=I can't give you anything but love
TTITLE11=Lord I wonder
TTITLE12=Sittin' on the dock of the bay
TTITLE13=Spiritual Medley
TTITLE14=It's good to see you
TTITLE15=Try a little tenderness
EXTD=
EXTT0=
EXTT1=
EXTT2=
EXTT3=
EXTT4=
EXTT5=
EXTT6=
EXTT7=
EXTT8=
EXTT9=
EXTT10=
EXTT11=
EXTT12=
EXTT13=
EXTT14=
EXTT15=
PLAYORDER=
